<svg xmlns="http://www.w3.org/2000/svg" viewBox="0 0 497.52 497.52"><g id="Capa_1" data-name="Capa 1"><circle cx="248.76" cy="248.76" r="238.76" fill="#e0cfa0" stroke="#744" stroke-miterlimit="10" stroke-width="20"/><path d="M546.54,482.46v44.08a5.05,5.05,0,0,1-5,5.06h-.1a5.06,5.06,0,0,1-5.06-5.06V482.46Z" transform="translate(-459.12 -160.63)" fill="#744"/><path d="M536.33,542.29v.11a5,5,0,0,0,5,5.07h.13a5,5,0,0,0,5-5.05v-.11a5,5,0,0,0-5-5h-.11A5.05,5.05,0,0,0,536.33,542.29Z" transform="translate(-459.12 -160.63)" fill="#744"/><path d="M536.33,558.05v.09a5,5,0,0,0,5,5.05h.11a5,5,0,0,0,5-5.05V558a5,5,0,0,0-5-5h-.11a5,5,0,0,0-5,5Z" transform="translate(-459.12 -160.63)" fill="#744"/><path d="M883.07,345.58,849.7,281.32c-3.18-6.11-7.91-10.3-13.7-12.1-9.72-3-18.93,1.54-20.12,2.17L736.13,312.8l-6.62,3.41c-28,14.45-52.22,26.93-86.2,60.71a386.82,386.82,0,0,1-50.82,42.19,309.21,309.21,0,0,1-29,18.34c-6.16,3.2-6.16,3.2-8.24,3-6.76-.54-11.74,4.74-12.87,6.08l-1.81,2a6.11,6.11,0,0,0-1.42.54l-6,3.08a6.47,6.47,0,0,0-2.76,8.71h0l.05.12a6.47,6.47,0,0,0,8.72,2.75l2.61-1.35h0a6.55,6.55,0,0,0,5.72-2.11l4.59-5.1.16-.18a6.44,6.44,0,0,1,2.07-1.54c5.71.43,8.11-.82,15.15-4.47,10.76-5.59,49.13-29.14,83.06-62.85,32.56-32.37,54.81-43.84,83-58.37l6.62-3.43L821.91,283l.06,0s5.44-2.72,10.15-1.25c2.45.76,4.41,2.61,6,5.65l33.37,64.27c1.55,3,1.94,5.61,1.18,8-1.24,3.86-5.39,6.7-6.92,7.49l-.12.06-79.77,41.42L779.23,412c-28.09,14.68-50.28,26.27-95.48,34.29-47.1,8.35-88.43,26.19-99.19,31.78-7,3.65-9.45,4.9-12.37,9.82a6.64,6.64,0,0,1-2.49.81l-.2,0-6.81.82a6.52,6.52,0,0,0-5,3.45h0l-2.62,1.36a6.47,6.47,0,0,0-2.76,8.72l.07.11a6.46,6.46,0,0,0,8.71,2.76h0l5.94-3.09a6.4,6.4,0,0,0,1.27-.85l2.68-.32c1.75-.17,8.94-1.21,12.39-7,1-1.79,1-1.79,7.21-5a310.35,310.35,0,0,1,31.72-13.24A387,387,0,0,1,686,459.14c47.19-8.36,71.31-21,99.25-35.58l6.59-3.43,79.73-41.39c1.36-.69,10.3-5.48,13.45-15C886.94,358,886.27,351.72,883.07,345.58Z" transform="translate(-459.12 -160.63)" fill="#4e4e4e"/><path d="M703.84,351.94c-14.45,9.09-29.25,20.49-47.23,38.35-34.44,34.23-69.68,65.51-80.67,71.21-6.48,3.36-38.11,20.28-39.62,21l5.68,11c1.43-.83,18.3-9.38,20-9.58l6.45-.78c3.37-4.85,7-6.73,13.45-10.09,11-5.69,53-23.86,100.85-32.34,44.32-7.85,66.16-19.27,93.81-33.72l.37-.2,6.25-3.26L814.75,387Z" transform="translate(-459.12 -160.63)" fill="#744"/><path d="M536.33,570.07v.09a5,5,0,0,0,5,5.05h.11a5,5,0,0,0,5-5.05v-.11a5,5,0,0,0-5-5h-.11a5,5,0,0,0-5,5Z" transform="translate(-459.12 -160.63)" fill="#744"/></g></svg>